<svg width="33" height="20" viewBox="0 0 33 20" fill="none" xmlns="http://www.w3.org/2000/svg">
<path d="M18.2045 16.313C19.7619 16.313 21.3367 16.4209 22.8768 16.277C24.1746 16.1511 25.4379 15.7374 26.7357 15.4856C27.0299 15.4317 27.4106 15.4317 27.6356 15.5935C29.2968 16.7446 31.3042 16.4568 32.377 14.8741C33.4499 13.2914 33.1384 11.1871 31.5464 10.036C31.01 9.65827 31.0273 9.2446 31.0792 8.74101C31.408 4.64029 28.6046 1.13309 25.2302 0.28777C24.538 0.107914 23.8112 0.0359712 23.1017 0.0179856C19.8312 0 16.5779 0 13.3073 0C8.96383 0.0179856 5.58941 3.23741 5.29524 7.64389C5.00106 11.9065 8.01207 15.7734 12.2344 16.259C14.2071 16.4928 16.2145 16.295 18.2045 16.295V16.313ZM24.4688 5.89928C25.732 5.8813 26.753 6.92446 26.7357 8.20144C26.7184 9.51439 25.732 10.5396 24.4688 10.5216C23.2575 10.5036 22.2538 9.4964 22.2365 8.2554C22.2192 6.96043 23.2229 5.89928 24.4688 5.89928ZM18.1872 5.89928C19.4505 5.8813 20.4887 6.88849 20.506 8.16547C20.5233 9.46043 19.5197 10.5216 18.2737 10.5396C17.0624 10.5576 16.0414 9.55036 16.0068 8.30935C15.9549 6.9964 16.9413 5.91727 18.1872 5.89928ZM9.75984 8.18345C9.77715 6.88849 10.7808 5.8813 12.0441 5.89928C13.2554 5.91727 14.2591 6.96043 14.2591 8.18345C14.2591 9.47842 13.2381 10.5216 11.9921 10.5216C10.7462 10.5216 9.74254 9.47842 9.75984 8.18345Z" fill="#3C72FF"/>
<path d="M4.30887 5.9892C2.35344 7.8597 1.76508 10.0719 1.85161 12.5899C1.93813 15.1798 1.60934 17.6798 9.53674e-06 19.8021C1.31516 20.3237 2.61301 19.7662 4.44731 18.0935C6.47195 19.8201 8.8773 20.0719 11.4211 20C14.5359 19.9101 17.6508 20 20.7656 19.946C22.8595 19.9101 24.6419 18.9928 26.2685 17.3921C25.9224 17.3561 25.7147 17.3201 25.5071 17.3201C20.956 17.3561 16.4048 17.482 11.8364 17.446C7.64867 17.4101 4.34348 13.6331 4.30887 9.01078C4.29156 8.03956 4.30887 7.08632 4.30887 5.9892Z" fill="#3C72FF"/>
</svg>
